# xmcd
#
# Track frame offsets:
#	150
#	17094
#	43379
#	57652
#	78496
#	96709
#	113067
#	135242
#	157589
#	182834
#	197662
#	218461
#	233469
#	250703
#	278314
#	298173
#
# Disc length: 4221 seconds
#
# Revision: 1
# Processed by: cddbd v1.5.2PL0 Copyright (c) Steve Scherf et al.
# Submitted via: audiograbber 1.83.01
#
DISCID=d6107b10
DTITLE=Norah Jones - Bonnaroo Music Festival
DYEAR=2002
DGENRE=
TTITLE0=In The Dark
TTITLE1=Cold Cold Heart
TTITLE2=Nightingale
TTITLE3=One Flight Down
TTITLE4=Something Is Calling You
TTITLE5=Feelin' The Same Way
TTITLE6=What Am I To You?
TTITLE7=Lonestar
TTITLE8=Comes Love
TTITLE9=My Toes Just Touch The Water
TTITLE10=Bessie Smith
TTITLE11=I've Got to See You Again
TTITLE12=Come Away With Me
TTITLE13=Don't Know Why
TTITLE14=In The Morning
TTITLE15=Tennessee Waltz
EXTD=
EXTT0=
EXTT1=
EXTT2=
EXTT3=
EXTT4=
EXTT5=
EXTT6=
EXTT7=
EXTT8=
EXTT9=
EXTT10=
EXTT11=
EXTT12=
EXTT13=
EXTT14=
EXTT15=
PLAYORDER=
